<svg xmlns="http://www.w3.org/2000/svg" width="194.47mm" height="36.69mm" viewBox="0 0 551.24 104"><defs><style>.a,.b{fill:#fff;}.b{opacity:0.66;}</style></defs><title>skiing-in-switzerland</title><path class="a" d="M2.7,92.21a24,24,0,0,0,7.74,5.85,22,22,0,0,0,9.63,2.16q6.84,0,10.8-3.28a10.63,10.63,0,0,0,4-8.6A11.36,11.36,0,0,0,34,83.66a10.65,10.65,0,0,0-2.3-3.29,15,15,0,0,0-3.37-2.43q-1.94-1-4.09-2l-9-4a38.79,38.79,0,0,1-4.1-2A17.28,17.28,0,0,1,7.24,67a15.34,15.34,0,0,1-2.92-4.14,12.85,12.85,0,0,1-1.17-5.71,13.17,13.17,0,0,1,1.31-5.9,14.06,14.06,0,0,1,3.6-4.59,16.73,16.73,0,0,1,5.49-3,21.36,21.36,0,0,1,6.88-1.08A21,21,0,0,1,30,44.64a24.4,24.4,0,0,1,6.89,5l-2.34,2.79A20.14,20.14,0,0,0,28.44,48a18.48,18.48,0,0,0-8-1.67q-5.94,0-9.54,2.88a9.4,9.4,0,0,0-3.6,7.74,9,9,0,0,0,1,4.41,11,11,0,0,0,2.52,3.1,17.93,17.93,0,0,0,3.33,2.25q1.8.94,3.42,1.67l9,4a39.64,39.64,0,0,1,4.77,2.43,18.73,18.73,0,0,1,4,3.15A14,14,0,0,1,38,82.17a15.26,15.26,0,0,1,1,5.9,15,15,0,0,1-1.35,6.35,14.61,14.61,0,0,1-3.83,5,18.34,18.34,0,0,1-6,3.33A23.84,23.84,0,0,1,20.07,104a25.81,25.81,0,0,1-11.52-2.48A27.4,27.4,0,0,1,0,95.09Z"/><path class="a" d="M58.5,59.72h4.32l7.74,28q.81,3,1.53,5.81t1.44,5.71h.36q.72-2.88,1.53-5.71T77,87.71l7.83-28h4.77l7.83,28q.81,3,1.62,5.81t1.62,5.71h.36q.72-2.88,1.53-5.71t1.53-5.81l7.65-28h4.05l-12.42,43.2H98.19L90.63,76.1q-1-3.15-1.67-6.17T87.3,63.77h-.36q-.72,3.15-1.58,6.25t-1.84,6.25L76,102.92H71.28Z"/><path class="a" d="M141.93,49.28a3.56,3.56,0,0,1-2.56-1,3.33,3.33,0,0,1-1-2.52,3.41,3.41,0,0,1,1-2.66,4,4,0,0,1,5.13,0,3.42,3.42,0,0,1,1,2.66,3.34,3.34,0,0,1-1,2.52A3.57,3.57,0,0,1,141.93,49.28Zm-2.07,10.44h4v43.2h-4Z"/><path class="a" d="M175,63.14H168.3V60.08l6.84-.36.54-12.51h3.42V59.72h12.51v3.42H179.1V91.31a20.09,20.09,0,0,0,.31,3.73,7.72,7.72,0,0,0,1.13,2.88,5.43,5.43,0,0,0,2.21,1.89,8.41,8.41,0,0,0,3.65.67,10.48,10.48,0,0,0,2.75-.4,17.07,17.07,0,0,0,2.65-.94l1.08,3.24a30.35,30.35,0,0,1-3.78,1.17,14.34,14.34,0,0,1-3.24.45,12.58,12.58,0,0,1-5.22-.95,8.34,8.34,0,0,1-3.33-2.65,10.34,10.34,0,0,1-1.75-4.14,26.57,26.57,0,0,1-.5-5.31Z"/><path class="a" d="M209.88,100.76l25.56-37.62H212.67V59.72h27.9v2.07L215.1,99.41h26.37v3.51H209.88Z"/><path class="a" d="M261.18,81.41a27.18,27.18,0,0,1,1.58-9.54A21.83,21.83,0,0,1,267,64.71a18.92,18.92,0,0,1,6-4.5,16.33,16.33,0,0,1,7-1.57q7.74,0,12.15,5.22t4.41,14.76v1.62a7.5,7.5,0,0,1-.18,1.62H265.23a25.06,25.06,0,0,0,1.26,7.52,17.74,17.74,0,0,0,3.28,5.94,15,15,0,0,0,5.08,3.87,15.47,15.47,0,0,0,6.66,1.4,18.4,18.4,0,0,0,6.35-1,20.72,20.72,0,0,0,5.26-2.83l1.62,3.06a53.37,53.37,0,0,1-5.71,2.88,22,22,0,0,1-15.66-.18A18,18,0,0,1,267,98a21.49,21.49,0,0,1-4.27-7.11A26.8,26.8,0,0,1,261.18,81.41Zm31.59-2.61q0-8.37-3.42-12.55a11.34,11.34,0,0,0-9.27-4.19,12.47,12.47,0,0,0-5.31,1.17,14.68,14.68,0,0,0-4.54,3.33,17.54,17.54,0,0,0-3.33,5.26,23.53,23.53,0,0,0-1.67,7Z"/><path class="a" d="M321.84,59.72h3.42l.36,8h.27a21.12,21.12,0,0,1,5.26-6.57,10.79,10.79,0,0,1,7-2.52,12.73,12.73,0,0,1,2.25.18,7.78,7.78,0,0,1,2.07.72l-.9,3.6a8.88,8.88,0,0,0-1.89-.59,13,13,0,0,0-2.07-.13,10.09,10.09,0,0,0-6.07,2.48q-3.2,2.48-5.71,8.59v29.43h-4Z"/><path class="a" d="M364,38.21h4V97.7a3.37,3.37,0,0,0,.54,2.12,1.66,1.66,0,0,0,1.35.67h.58a4.87,4.87,0,0,0,1-.18l.72,3.24c-.42.12-.84.23-1.26.31a7.94,7.94,0,0,1-1.62.14Q364,104,364,97.16Z"/><path class="a" d="M396.44,92.12q0-7.11,6.75-10.89t21.15-5.4a24.73,24.73,0,0,0-.32-4.91,12.82,12.82,0,0,0-1.53-4.41,8.81,8.81,0,0,0-3.15-3.15,9.93,9.93,0,0,0-5.17-1.21,18.44,18.44,0,0,0-8,1.71,34.24,34.24,0,0,0-5.76,3.33l-1.8-3q1.17-.81,2.83-1.8a26.37,26.37,0,0,1,3.69-1.8,32.52,32.52,0,0,1,4.46-1.4,21.47,21.47,0,0,1,5-.58,14.42,14.42,0,0,1,6.48,1.3,11.4,11.4,0,0,1,4.23,3.56,14.22,14.22,0,0,1,2.29,5.27,29.84,29.84,0,0,1,.67,6.52v27.63H425l-.45-5.58h-.18a47.86,47.86,0,0,1-7.16,4.64,17.16,17.16,0,0,1-8.14,2,15.87,15.87,0,0,1-4.86-.72,12,12,0,0,1-4-2.16,9.77,9.77,0,0,1-2.75-3.69A13.08,13.08,0,0,1,396.44,92.12Zm4.14-.18q0,4.68,2.7,6.66a10.5,10.5,0,0,0,6.39,2,15.24,15.24,0,0,0,7.2-1.8,42.74,42.74,0,0,0,7.47-5.22V78.89a89,89,0,0,0-11.21,2,29.34,29.34,0,0,0-7.33,2.79,10.71,10.71,0,0,0-4,3.69A8.9,8.9,0,0,0,400.59,91.94Z"/><path class="a" d="M457.37,59.72h3.42l.36,6.66h.27a39.32,39.32,0,0,1,6.84-5.54,14.74,14.74,0,0,1,8-2.2q6.75,0,9.9,4t3.15,12.51v27.72h-4V75.74q0-6.93-2.29-10.21t-7.6-3.29a12.71,12.71,0,0,0-7,2,42.77,42.77,0,0,0-7.11,6.07v32.58h-4Z"/><path class="a" d="M515.24,81.41A27.62,27.62,0,0,1,516.77,72a21.78,21.78,0,0,1,4.18-7.2,18.33,18.33,0,0,1,6.12-4.54,17.54,17.54,0,0,1,7.33-1.57A15.86,15.86,0,0,1,541.3,60a34.3,34.3,0,0,1,6.17,3.91L547.28,56V38.21h4v64.71h-3.42l-.36-5.58h-.27A28.83,28.83,0,0,1,541,102a15.64,15.64,0,0,1-7.87,2,16.15,16.15,0,0,1-13-5.81Q515.24,92.39,515.24,81.41Zm4.23,0a30.07,30.07,0,0,0,.95,7.83,18,18,0,0,0,2.74,6,12.52,12.52,0,0,0,10.53,5.26,13.86,13.86,0,0,0,6.88-1.84,31.44,31.44,0,0,0,6.71-5.27V67.73a23.7,23.7,0,0,0-6.43-4.32,15.86,15.86,0,0,0-6.17-1.26,12.64,12.64,0,0,0-6,1.48,15.17,15.17,0,0,0-4.81,4.05,19.71,19.71,0,0,0-3.2,6.12A24.18,24.18,0,0,0,519.47,81.41Z"/><path class="a" d="M176.14,13.55A5.51,5.51,0,0,0,178,15.33a5,5,0,0,0,2.54.64,4.42,4.42,0,0,0,1.46-.23,3.49,3.49,0,0,0,1.16-.65,3.07,3.07,0,0,0,.77-1,3,3,0,0,0,.29-1.33,2.24,2.24,0,0,0-.58-1.57,7.4,7.4,0,0,0-1.55-1.23l-2-1.2a7.43,7.43,0,0,1-1.86-1.61,3.65,3.65,0,0,1-.77-2.39,4.23,4.23,0,0,1,.4-1.82A4.85,4.85,0,0,1,179,1.4a5.2,5.2,0,0,1,1.68-1A5.83,5.83,0,0,1,182.77,0a5.75,5.75,0,0,1,2.78.68,6.43,6.43,0,0,1,2.05,1.72l-1.33,1.2a6.39,6.39,0,0,0-1.57-1.31,4,4,0,0,0-2.09-.53,3.41,3.41,0,0,0-1.3.23,3,3,0,0,0-1,.62,2.66,2.66,0,0,0-.61.88,2.59,2.59,0,0,0-.21,1,2.11,2.11,0,0,0,.64,1.6,9.17,9.17,0,0,0,1.57,1.18l2,1.17a6.07,6.07,0,0,1,1.91,1.65,3.94,3.94,0,0,1,.66,2.35,5,5,0,0,1-.44,2.11,4.91,4.91,0,0,1-1.22,1.65,5.67,5.67,0,0,1-1.87,1.08,7.06,7.06,0,0,1-2.39.39,6.92,6.92,0,0,1-3.21-.74,6.71,6.71,0,0,1-2.48-2.27Z"/><path class="a" d="M204.82.31h2l-1.69,8.42h.08L213.79.31h2.29l-6.4,6.55,3.87,10.5h-2.11l-3.28-9.2-3.56,3.48-1.17,5.72h-2Z"/><path class="a" d="M232.35.31h2L231,17.37h-2Z"/><path class="a" d="M251.91.31h2l-3.41,17.06h-2Z"/><path class="a" d="M271.46.31h2l3.9,10.92,1.09,3.56h.1q.16-1.27.33-2.69t.46-2.74l1.79-9h2L279.7,17.37h-2L273.85,6.47l-1.12-3.67h-.1q-.16,1.33-.35,2.7t-.45,2.68L270,17.37h-2Z"/><path class="a" d="M297.72,10.79a12.61,12.61,0,0,1,.64-4,11.55,11.55,0,0,1,1.81-3.46A9.09,9.09,0,0,1,303,.92,7.72,7.72,0,0,1,306.79,0a4.5,4.5,0,0,1,2.59.72,5.65,5.65,0,0,1,1.7,1.81l-1.43,1.07a4.31,4.31,0,0,0-1.21-1.34,3,3,0,0,0-1.75-.51,5.28,5.28,0,0,0-2.89.81,7.63,7.63,0,0,0-2.17,2.08,9.7,9.7,0,0,0-1.37,2.85,11,11,0,0,0-.47,3.13,8.59,8.59,0,0,0,.25,2.12,4.74,4.74,0,0,0,.79,1.7,3.68,3.68,0,0,0,1.4,1.13,4.86,4.86,0,0,0,2.08.4,4.34,4.34,0,0,0,1.66-.3,4.6,4.6,0,0,0,1.25-.74l1-4.71h-3.54L305,8.55h5.36l-1.48,7.38a7.88,7.88,0,0,1-2.14,1.26,7.23,7.23,0,0,1-2.69.48,7,7,0,0,1-2.72-.49,5.44,5.44,0,0,1-2-1.39,5.83,5.83,0,0,1-1.21-2.17A9.4,9.4,0,0,1,297.72,10.79Z"/><path class="a" d="M346.83.31h2l-3.41,17.06h-2Z"/><path class="a" d="M366.38.31h2l3.9,10.92,1.09,3.56h.1q.16-1.27.32-2.69t.46-2.74l1.79-9h2l-3.41,17.06h-2L368.78,6.47l-1.12-3.67h-.1q-.16,1.33-.35,2.7t-.46,2.68l-1.82,9.18h-2Z"/><rect class="b" x="396.55" y="8.34" width="154.69" height="1"/><rect class="b" x="1.45" y="8.34" width="154.69" height="1"/></svg>